PathFileType	4	(X/Y/Z)	/Users/niels/Desktop/University/Third Semester/Perception and Action/Exam/Gymnastics Motion Tracking/Code for Gym Tracking/Analyzed Data/Webcam_Backflip/id2006_1_baseline_Sports2D/id2006_1_baseline_Sports2D_px_person00.trc
DataRate	CameraRate	NumFrames	NumMarkers	Units	OrigDataRate	OrigDataStartFrame	OrigNumFrames
29.782608695652176	29.782608695652176	11	22	m	29.782608695652176	17	138
Frame#	Time	Hip			RHip			RKnee			RAnkle			RBigToe			RSmallToe			RHeel			LHip			LKnee			LAnkle			LBigToe			LSmallToe			LHeel			Neck			Head			Nose			RShoulder			RElbow			RWrist			LShoulder			LElbow			LWrist		
		X1	Y1	Z1	X2	Y2	Z2	X3	Y3	Z3	X4	Y4	Z4	X5	Y5	Z5	X6	Y6	Z6	X7	Y7	Z7	X8	Y8	Z8	X9	Y9	Z9	X10	Y10	Z10	X11	Y11	Z11	X12	Y12	Z12	X13	Y13	Z13	X14	Y14	Z14	X15	Y15	Z15	X16	Y16	Z16	X17	Y17	Z17	X18	Y18	Z18	X19	Y19	Z19	X20	Y20	Z20	X21	Y21	Z21	X22	Y22	Z22
17	0.5708029197080291	0.9166034235256258	-0.7381690444467242	0.0	0.9006942628261465	-0.7433155825272545	0.0	0.9402197995392317	-1.0509000725175413	0.0	0.9848664516566512	-1.083049073871206	0.0	1.39367578125	-1.01568359375	0.0	1.3612734375000002	-1.031884765625	0.0	1.1636645507812493	-1.0892622070312499	0.0	0.9491201502361758	-0.7492849480258938	0.0	0.9486154446407664	-1.04540266245455	0.0	0.9372373038305264	-1.0825605679927752	0.0	1.4993579101562495	-0.6945361328124999	0.0	1.5050170898437498	-0.7143432617187501	0.0	1.43427734375	-0.8416748046874999	0.0	0.9642777707958863	-0.29074100865638186	0.0	1.0265269232681085	-0.12450644133085498	0.0	1.0286272220528465	-0.22263902500418412	0.0	0.9072699305978543	-0.3225988039761354	0.0	0.8688160867105771	-0.5342878353309906	0.0	0.9633278056204473	-0.7224077500097078	0.0	0.992725592247141	-0.34780087359324374	0.0	0.9708565225585705	-0.5340222940235152	0.0	1.0111101498700166	-0.7240436431898852	0.0
18	0.6043795620437955	0.9203944720860312	-0.7405509570159107	0.0	0.9005995466375173	-0.747197618574932	0.0	0.9358738887453971	-1.0499871307783044	0.0	0.9848664506574264	-1.0830490739975602	0.0	1.39367578125	-1.01568359375	0.0	1.3612734375000002	-1.031884765625	0.0	1.1636645507812493	-1.0892622070312499	0.0	0.9542741167270011	-0.7524696729368434	0.0	0.9497884069792741	-1.043942590964257	0.0	0.9397183891916787	-1.0828774964507046	0.0	1.4993579101562495	-0.6945361328124999	0.0	1.5050170898437498	-0.7143432617187501	0.0	1.43427734375	-0.8416748046874999	0.0	0.9642878331103925	-0.2918027325760924	0.0	1.0241238898902723	-0.12543356084381285	0.0	1.0278074001942148	-0.22323227113508434	0.0	0.9040137636608759	-0.32524399741548043	0.0	0.8657051482774512	-0.5400866887269551	0.0	0.9563795050492466	-0.7262843844858617	0.0	0.9935282408748244	-0.34942118199452776	0.0	0.9749814349513548	-0.536577511118443	0.0	1.0132874517861648	-0.7252089249593052	0.0
19	0.6379562043795619	0.9238472977583398	-0.7429014087516754	0.0	0.9007423068204882	-0.7512413857774608	0.0	0.9325475053431922	-1.0497680441656616	0.0	0.9848664511263511	-1.0830490731715983	0.0	1.39367578125	-1.01568359375	0.0	1.3612734375000002	-1.031884765625	0.0	1.1636645507812493	-1.0892622070312499	0.0	0.9587194977603911	-0.7558446193785459	0.0	0.9519507033260101	-1.0433776722217871	0.0	0.943142541613662	-1.0833576286709368	0.0	1.4993579101562495	-0.6945361328124999	0.0	1.5050170898437498	-0.7143432617187501	0.0	1.43427734375	-0.8416748046874999	0.0	0.9639310446799576	-0.29276832561181065	0.0	1.02222525605598	-0.12593768418971696	0.0	1.0271303464789596	-0.2236433515905432	0.0	0.9007973410240329	-0.32801104469396364	0.0	0.8634490496939364	-0.5468321207428097	0.0	0.9515502536792798	-0.732305566186075	0.0	0.9939804610955721	-0.3511685150364257	0.0	0.9786141145209379	-0.5401611942901462	0.0	1.015677057450703	-0.727934414855177	0.0
20	0.6715328467153283	0.9261016916154383	-0.7449942117087343	0.0	0.9009468595544886	-0.7547502369771347	0.0	0.9301967791670961	-1.0502111506223542	0.0	0.9848664548453205	-1.0830490705785543	0.0	1.39367578125	-1.01568359375	0.0	1.3612734375000002	-1.031884765625	0.0	1.1636645507812493	-1.0892622070312499	0.0	0.9615163477162615	-0.758749103497068	0.0	0.9545339727017791	-1.0437422655007815	0.0	0.9470184708834828	-1.0840230018929677	0.0	1.4993579101562495	-0.6945361328124999	0.0	1.5050170898437498	-0.7143432617187501	0.0	1.43427734375	-0.8416748046874999	0.0	0.9629620307092185	-0.29347290302488266	0.0	1.020808853533362	-0.12598801695424014	0.0	1.0262985858451052	-0.22379239773563203	0.0	0.89785913363544	-0.3306638613340208	0.0	0.8625515185535672	-0.5541221084836806	0.0	0.9500159963832735	-0.7405163759354146	0.0	0.9935691475457455	-0.3528360474410111	0.0	0.9804577786266778	-0.544704682638517	0.0	1.0172377520275098	-0.7324196431079757	0.0
21	0.7051094890510948	0.9264862585371934	-0.7465767120393889	0.0	0.9010997147547635	-0.7571577533826352	0.0	0.9285669378279122	-1.0512260203379775	0.0	0.984866464006586	-1.083049065399706	0.0	1.39367578125	-1.01568359375	0.0	1.3612734375000002	-1.031884765625	0.0	1.163664550781249	-1.0892622070312499	0.0	0.9618557617633274	-0.7606090886236796	0.0	0.9567577352791297	-1.0449824743014748	0.0	0.9508392987533383	-1.0849012575006416	0.0	1.4993579101562495	-0.6945361328124999	0.0	1.5050170898437498	-0.7143432617187501	0.0	1.43427734375	-0.8416748046874999	0.0	0.9612508983073225	-0.2938220869310924	0.0	1.0196502234260476	-0.12557517848098831	0.0	1.02510901634883	-0.22361788794266257	0.0	0.8954436469788567	-0.3330820017135428	0.0	0.8634912189626924	-0.561601603980687	0.0	0.9530274320869658	-0.7505437028511466	0.0	0.99189768946604	-0.3542527781933527	0.0	0.9796644100557994	-0.5499715035941165	0.0	1.0174260665499542	-0.7385815564731777	0.0
22	0.7386861313868612	0.9249574151951676	-0.7473706068154481	0.0	0.9011808164950007	-0.7581109544201703	0.0	0.9272743411800286	-1.0525462306592772	0.0	0.9848664803635434	-1.083049057341892	0.0	1.39367578125	-1.01568359375	0.0	1.3612734375000002	-1.031884765625	0.0	1.1636645507812489	-1.08926220703125	0.0	0.9596663695514165	-0.7610450454342861	0.0	0.9582156241768065	-1.046793820552024	0.0	0.9545541533716395	-1.0859395817933297	0.0	1.4993579101562495	-0.6945361328124999	0.0	1.5050170898437498	-0.7143432617187501	0.0	1.43427734375	-0.8416748046874999	0.0	0.9588610487675745	-0.2938565211871628	0.0	1.018436364905647	-0.12473463406134959	0.0	1.0235445170653021	-0.2230935653586428	0.0	0.8936918175257629	-0.3352350135723661	0.0	0.8666995465282082	-0.568955553669367	0.0	0.9614678900756413	-0.7613023716539074	0.0	0.9889950843396778	-0.35538224281783115	0.0	0.9766967094864408	-0.5555540095244522	0.0	1.0166887478535125	-0.7456638333413335	0.0
23	0.7722627737226276	0.9222071449854483	-0.7470369225068929	0.0	0.901212857875429	-0.7573808655410399	0.0	0.9260230422808172	-1.0536966278284061	0.0	0.984866503460397	-1.083049047576726	0.0	1.3936757812499998	-1.01568359375	0.0	1.3612734375000002	-1.031884765625	0.0	1.1636645507812486	-1.0892622070312503	0.0	0.9558756840078717	-0.7598541985515306	0.0	0.95899880037145	-1.048606635447859	0.0	0.9583222694915982	-1.0869628929282256	0.0	1.4993579101562495	-0.6945361328124999	0.0	1.5050170898437498	-0.7143432617187501	0.0	1.43427734375	-0.8416748046874999	0.0	0.9561066776882954	-0.2937335895514807	0.0	1.0168774211295468	-0.1235295287997812	0.0	1.0216444969514937	-0.22218806342710307	0.0	0.8925300628912858	-0.3370875768925596	0.0	0.8725200958157409	-0.5756415841768869	0.0	0.9753366410044135	-0.7706483754045873	0.0	0.9855120695632701	-0.35626932505427833	0.0	0.9734403708460124	-0.5607540714525082	0.0	1.0166270540326356	-0.7520338528280619	0.0
24	0.805839416058394	0.9193818230338677	-0.7452758261409542	0.0	0.901249537875542	-0.75489841635264	0.0	0.9247008172974523	-1.0541339883979228	0.0	0.9848665277875698	-1.0830490400583919	0.0	1.3936757812499996	-1.0156835937500002	0.0	1.3612734375	-1.0318847656250003	0.0	1.1636645507812484	-1.0892622070312505	0.0	0.9521185101526032	-0.7571081710459854	0.0	0.9593039022348082	-1.049841489688966	0.0	0.9619097485071884	-1.087785354115333	0.0	1.4993579101562495	-0.6945361328124999	0.0	1.5050170898437498	-0.7143432617187501	0.0	1.43427734375	-0.8416748046874999	0.0	0.9534883314200591	-0.2936375372885905	0.0	1.0146888424978433	-0.12201876379988638	0.0	1.0193825160042917	-0.2208257511954886	0.0	0.8917123479430545	-0.33857315282525324	0.0	0.8811931801443726	-0.5807674549404478	0.0	0.9936820163524932	-0.7757338192231938	0.0	0.9825002413741234	-0.35694095284439176	0.0	0.9723316275223132	-0.564674567667053	0.0	1.01946666449832	-0.755651175970348	0.0
25	0.8394160583941604	0.9175240362274589	-0.7420135379889896	0.0	0.9013642830118743	-0.7508797260566595	0.0	0.9232205275430836	-1.0535379421646545	0.0	0.9848665391940923	-1.0830490428971813	0.0	1.3936757812499994	-1.0156835937500004	0.0	1.3612734374999997	-1.0318847656250005	0.0	1.1636645507812486	-1.0892622070312508	0.0	0.9499577845452006	-0.7532089093381028	0.0	0.9591907286115858	-1.050169940216134	0.0	0.9647778525878071	-1.0883251176724618	0.0	1.4993579101562495	-0.6945361328124999	0.0	1.5050170898437498	-0.7143432617187501	0.0	1.43427734375	-0.8416748046874999	0.0	0.9514394442401364	-0.2936592436672703	0.0	1.0116356541337428	-0.12026404068668219	0.0	1.016747824650378	-0.21895858243047092	0.0	0.8910460621710639	-0.3395880047441684	0.0	0.8928316947913119	-0.5832894161108266	0.0	1.0152491243904218	-0.7743095091910086	0.0	0.9808224074312355	-0.3573397943801728	0.0	0.9748873253083339	-0.5665978959295878	0.0	1.0271057457674315	-0.7549868169573496	0.0
26	0.8729927007299269	0.9170554695593628	-0.7375613928431402	0.0	0.9015459579018026	-0.7458642404204643	0.0	0.9213907384483668	-1.0520472135132881	0.0	0.9848665118450217	-1.0830490689702756	0.0	1.3936757812499991	-1.0156835937500008	0.0	1.3612734374999995	-1.031884765625001	0.0	1.1636645507812493	-1.089262207031251	0.0	0.9501231673100702	-0.7487353674393196	0.0	0.9587039220864897	-1.0495838490559246	0.0	0.9666276608389055	-1.0886061823405024	0.0	1.4993579101562495	-0.6945361328124999	0.0	1.5050170898437498	-0.7143432617187501	0.0	1.43427734375	-0.8416748046874999	0.0	0.9501277945207262	-0.2937427980247727	0.0	1.0076711334468718	-0.11834973179422263	0.0	1.0138491997981052	-0.2166990385121409	0.0	0.890573104697989	-0.33997682515924876	0.0	0.9073714940894008	-0.5823310533375582	0.0	1.0392443841790915	-0.765775358753274	0.0	0.9806788709240004	-0.35725374808060306	0.0	0.9808957614814668	-0.5662126364294214	0.0	1.0405677441476457	-0.7494403990325227	0.0
27	0.9065693430656933	0.9177039116578786	-0.7326873426471944	0.0	0.901618196583536	-0.740651771588542	0.0	0.9190807291785889	-1.0501305460120385	0.0	0.9848664084879197	-1.0830491342855488	0.0	1.3936757812499991	-1.0156835937500013	0.0	1.3612734374999995	-1.0318847656250012	0.0	1.1636645507812509	-1.089262207031251	0.0	0.952359929401902	-0.7443011215752865	0.0	0.9580883262021482	-1.0483097478969141	0.0	0.9675577537970161	-1.0887045669349114	0.0	1.4993579101562495	-0.6945361328124999	0.0	1.5050170898437498	-0.7143432617187501	0.0	1.43427734375	-0.8416748046874999	0.0	0.9495005662140404	-0.29370675688271886	0.0	1.002940110122508	-0.1163666523268312	0.0	1.010859667488852	-0.2143123726243426	0.0	0.8904540369664928	-0.33961837816915624	0.0	0.9245975199741973	-0.5773902164482435	0.0	1.065473582085074	-0.7508750808529899	0.0	0.9817009639068505	-0.35632492728873255	0.0	0.9892408714079148	-0.563429862030482	0.0	1.0601636267036616	-0.7387862232119977	0.0
